<svg id="visual" viewBox="0 0 900 600" width="900" height="600" xmlns="http://www.w3.org/2000/svg" xmlns:xlink="http://www.w3.org/1999/xlink" version="1.1"><rect x="0" y="0" width="900" height="600" fill="#001220"></rect><path d="M0 126L21.5 126.5C43 127 86 128 128.8 131.5C171.7 135 214.3 141 257.2 142.8C300 144.7 343 142.3 385.8 135.2C428.7 128 471.3 116 514.2 115C557 114 600 124 642.8 124.7C685.7 125.3 728.3 116.7 771.2 117.2C814 117.7 857 127.3 878.5 132.2L900 137L900 0L878.5 0C857 0 814 0 771.2 0C728.3 0 685.7 0 642.8 0C600 0 557 0 514.2 0C471.3 0 428.7 0 385.8 0C343 0 300 0 257.2 0C214.3 0 171.7 0 128.8 0C86 0 43 0 21.5 0L0 0Z" fill="#fa7268"></path><path d="M0 124L21.5 122.3C43 120.7 86 117.3 128.8 115.3C171.7 113.3 214.3 112.7 257.2 113.7C300 114.7 343 117.3 385.8 119.5C428.7 121.7 471.3 123.3 514.2 117.3C557 111.3 600 97.7 642.8 95.2C685.7 92.7 728.3 101.3 771.2 109C814 116.7 857 123.3 878.5 126.7L900 130L900 0L878.5 0C857 0 814 0 771.2 0C728.3 0 685.7 0 642.8 0C600 0 557 0 514.2 0C471.3 0 428.7 0 385.8 0C343 0 300 0 257.2 0C214.3 0 171.7 0 128.8 0C86 0 43 0 21.5 0L0 0Z" fill="#f36567"></path><path d="M0 105L21.5 103.7C43 102.3 86 99.7 128.8 97C171.7 94.3 214.3 91.7 257.2 89.7C300 87.7 343 86.3 385.8 84.2C428.7 82 471.3 79 514.2 77.3C557 75.7 600 75.3 642.8 77.8C685.7 80.3 728.3 85.7 771.2 88C814 90.3 857 89.7 878.5 89.3L900 89L900 0L878.5 0C857 0 814 0 771.2 0C728.3 0 685.7 0 642.8 0C600 0 557 0 514.2 0C471.3 0 428.7 0 385.8 0C343 0 300 0 257.2 0C214.3 0 171.7 0 128.8 0C86 0 43 0 21.5 0L0 0Z" fill="#eb5967"></path><path d="M0 71L21.5 70.8C43 70.7 86 70.3 128.8 72C171.7 73.7 214.3 77.3 257.2 76.7C300 76 343 71 385.8 67C428.7 63 471.3 60 514.2 58C557 56 600 55 642.8 55.7C685.7 56.3 728.3 58.7 771.2 59.2C814 59.7 857 58.3 878.5 57.7L900 57L900 0L878.5 0C857 0 814 0 771.2 0C728.3 0 685.7 0 642.8 0C600 0 557 0 514.2 0C471.3 0 428.7 0 385.8 0C343 0 300 0 257.2 0C214.3 0 171.7 0 128.8 0C86 0 43 0 21.5 0L0 0Z" fill="#e34c67"></path><path d="M0 61L21.5 60.3C43 59.7 86 58.3 128.8 57C171.7 55.7 214.3 54.3 257.2 53.2C300 52 343 51 385.8 50.3C428.7 49.7 471.3 49.3 514.2 48.8C557 48.3 600 47.7 642.8 48.8C685.7 50 728.3 53 771.2 52.8C814 52.7 857 49.3 878.5 47.7L900 46L900 0L878.5 0C857 0 814 0 771.2 0C728.3 0 685.7 0 642.8 0C600 0 557 0 514.2 0C471.3 0 428.7 0 385.8 0C343 0 300 0 257.2 0C214.3 0 171.7 0 128.8 0C86 0 43 0 21.5 0L0 0Z" fill="#da3f67"></path><path d="M0 34L21.5 33.7C43 33.3 86 32.7 128.8 32.7C171.7 32.7 214.3 33.3 257.2 34.8C300 36.3 343 38.7 385.8 38.2C428.7 37.7 471.3 34.3 514.2 35.7C557 37 600 43 642.8 46C685.7 49 728.3 49 771.2 47.3C814 45.7 857 42.3 878.5 40.7L900 39L900 0L878.5 0C857 0 814 0 771.2 0C728.3 0 685.7 0 642.8 0C600 0 557 0 514.2 0C471.3 0 428.7 0 385.8 0C343 0 300 0 257.2 0C214.3 0 171.7 0 128.8 0C86 0 43 0 21.5 0L0 0Z" fill="#d03267"></path><path d="M0 13L21.5 16C43 19 86 25 128.8 25C171.7 25 214.3 19 257.2 16.8C300 14.7 343 16.3 385.8 18.2C428.7 20 471.3 22 514.2 23.7C557 25.3 600 26.7 642.8 25.2C685.7 23.7 728.3 19.3 771.2 19.2C814 19 857 23 878.5 25L900 27L900 0L878.5 0C857 0 814 0 771.2 0C728.3 0 685.7 0 642.8 0C600 0 557 0 514.2 0C471.3 0 428.7 0 385.8 0C343 0 300 0 257.2 0C214.3 0 171.7 0 128.8 0C86 0 43 0 21.5 0L0 0Z" fill="#c62368"></path></svg>