<svg id="visual" viewBox="0 0 900 600" width="900" height="600" xmlns="http://www.w3.org/2000/svg" xmlns:xlink="http://www.w3.org/1999/xlink" version="1.1"><rect x="0" y="0" width="900" height="600" fill="#001220"></rect><path d="M0 472L21.5 471.5C43 471 86 470 128.8 466.5C171.7 463 214.3 457 257.2 455.2C300 453.3 343 455.7 385.8 462.8C428.7 470 471.3 482 514.2 483C557 484 600 474 642.8 473.3C685.7 472.7 728.3 481.3 771.2 480.8C814 480.3 857 470.7 878.5 465.8L900 461L900 601L878.5 601C857 601 814 601 771.2 601C728.3 601 685.7 601 642.8 601C600 601 557 601 514.2 601C471.3 601 428.7 601 385.8 601C343 601 300 601 257.2 601C214.3 601 171.7 601 128.8 601C86 601 43 601 21.5 601L0 601Z" fill="#fa7268"></path><path d="M0 474L21.5 475.7C43 477.3 86 480.7 128.8 482.7C171.7 484.7 214.3 485.3 257.2 484.3C300 483.3 343 480.7 385.8 478.5C428.7 476.3 471.3 474.7 514.2 480.7C557 486.7 600 500.3 642.8 502.8C685.7 505.3 728.3 496.7 771.2 489C814 481.3 857 474.7 878.5 471.3L900 468L900 601L878.5 601C857 601 814 601 771.2 601C728.3 601 685.7 601 642.8 601C600 601 557 601 514.2 601C471.3 601 428.7 601 385.8 601C343 601 300 601 257.2 601C214.3 601 171.7 601 128.8 601C86 601 43 601 21.5 601L0 601Z" fill="#f36567"></path><path d="M0 493L21.5 494.3C43 495.7 86 498.3 128.8 501C171.7 503.7 214.3 506.3 257.2 508.5C300 510.7 343 512.3 385.8 514.5C428.7 516.7 471.3 519.3 514.2 520.8C557 522.3 600 522.7 642.8 520.2C685.7 517.7 728.3 512.3 771.2 510C814 507.7 857 508.3 878.5 508.7L900 509L900 601L878.5 601C857 601 814 601 771.2 601C728.3 601 685.7 601 642.8 601C600 601 557 601 514.2 601C471.3 601 428.7 601 385.8 601C343 601 300 601 257.2 601C214.3 601 171.7 601 128.8 601C86 601 43 601 21.5 601L0 601Z" fill="#eb5967"></path><path d="M0 527L21.5 527.2C43 527.3 86 527.7 128.8 526C171.7 524.3 214.3 520.7 257.2 521.3C300 522 343 527 385.8 531C428.7 535 471.3 538 514.2 540C557 542 600 543 642.8 542.3C685.7 541.7 728.3 539.3 771.2 538.8C814 538.3 857 539.7 878.5 540.3L900 541L900 601L878.5 601C857 601 814 601 771.2 601C728.3 601 685.7 601 642.8 601C600 601 557 601 514.2 601C471.3 601 428.7 601 385.8 601C343 601 300 601 257.2 601C214.3 601 171.7 601 128.8 601C86 601 43 601 21.5 601L0 601Z" fill="#e34c67"></path><path d="M0 537L21.5 537.7C43 538.3 86 539.7 128.8 541C171.7 542.3 214.3 543.7 257.2 544.8C300 546 343 547 385.8 547.7C428.7 548.3 471.3 548.7 514.2 549.2C557 549.7 600 550.3 642.8 549.2C685.7 548 728.3 545 771.2 545.2C814 545.3 857 548.7 878.5 550.3L900 552L900 601L878.5 601C857 601 814 601 771.2 601C728.3 601 685.7 601 642.8 601C600 601 557 601 514.2 601C471.3 601 428.7 601 385.8 601C343 601 300 601 257.2 601C214.3 601 171.7 601 128.8 601C86 601 43 601 21.5 601L0 601Z" fill="#da3f67"></path><path d="M0 564L21.5 564.3C43 564.7 86 565.3 128.8 565.3C171.7 565.3 214.3 564.7 257.2 563.2C300 561.7 343 559.3 385.8 559.8C428.7 560.3 471.3 563.7 514.2 562.3C557 561 600 555 642.8 552C685.7 549 728.3 549 771.2 550.7C814 552.3 857 555.7 878.5 557.3L900 559L900 601L878.5 601C857 601 814 601 771.2 601C728.3 601 685.7 601 642.8 601C600 601 557 601 514.2 601C471.3 601 428.7 601 385.8 601C343 601 300 601 257.2 601C214.3 601 171.7 601 128.8 601C86 601 43 601 21.5 601L0 601Z" fill="#d03267"></path><path d="M0 585L21.5 582C43 579 86 573 128.8 573C171.7 573 214.3 579 257.2 581.2C300 583.3 343 581.7 385.8 579.8C428.7 578 471.3 576 514.2 574.3C557 572.7 600 571.3 642.8 572.8C685.7 574.3 728.3 578.7 771.2 578.8C814 579 857 575 878.5 573L900 571L900 601L878.5 601C857 601 814 601 771.2 601C728.3 601 685.7 601 642.8 601C600 601 557 601 514.2 601C471.3 601 428.7 601 385.8 601C343 601 300 601 257.2 601C214.3 601 171.7 601 128.8 601C86 601 43 601 21.5 601L0 601Z" fill="#c62368"></path></svg>